<?xml version="1.0" encoding="UTF-8"?>
<!-- Do not edit this file with editors other than draw.io -->
<!DOCTYPE svg PUBLIC "-//W3C//DTD SVG 1.1//EN" "http://www.w3.org/Graphics/SVG/1.1/DTD/svg11.dtd">
<svg xmlns="http://www.w3.org/2000/svg" style="background: transparent; background-color: transparent; color-scheme: light dark;" xmlns:xlink="http://www.w3.org/1999/xlink" version="1.1" width="50px" height="50px" viewBox="0 0 50 50" content="&lt;mxfile host=&quot;app.diagrams.net&quot; agent=&quot;Mozilla/5.0 (Windows NT 10.0; Win64; x64) AppleWebKit/537.36 (KHTML, like Gecko) Chrome/143.0.0.0 Safari/537.36&quot; version=&quot;29.2.9&quot;&gt;&#10;  &lt;diagram name=&quot;Page-1&quot; id=&quot;Kse91P8x1iPdnRqVBTjg&quot;&gt;&#10;    &lt;mxGraphModel dx=&quot;1042&quot; dy=&quot;527&quot; grid=&quot;1&quot; gridSize=&quot;10&quot; guides=&quot;1&quot; tooltips=&quot;1&quot; connect=&quot;1&quot; arrows=&quot;1&quot; fold=&quot;1&quot; page=&quot;1&quot; pageScale=&quot;1&quot; pageWidth=&quot;850&quot; pageHeight=&quot;1100&quot; math=&quot;0&quot; shadow=&quot;0&quot;&gt;&#10;      &lt;root&gt;&#10;        &lt;mxCell id=&quot;0&quot; /&gt;&#10;        &lt;mxCell id=&quot;1&quot; parent=&quot;0&quot; /&gt;&#10;        &lt;mxCell id=&quot;Z0hju_i9_j2at8R-0S7F-1&quot; parent=&quot;1&quot; style=&quot;sketch=0;verticalLabelPosition=bottom;sketch=0;aspect=fixed;html=1;verticalAlign=top;strokeColor=none;fillColor=#000000;align=center;outlineConnect=0;pointerEvents=1;shape=mxgraph.citrix2.authentication_failure;&quot; value=&quot;&quot; vertex=&quot;1&quot;&gt;&#10;          &lt;mxGeometry height=&quot;50&quot; width=&quot;50&quot; x=&quot;400&quot; y=&quot;250&quot; as=&quot;geometry&quot; /&gt;&#10;        &lt;/mxCell&gt;&#10;      &lt;/root&gt;&#10;    &lt;/mxGraphModel&gt;&#10;  &lt;/diagram&gt;&#10;&lt;/mxfile&gt;&#10;"><defs/><g><g data-cell-id="0"><g data-cell-id="1"><g data-cell-id="Z0hju_i9_j2at8R-0S7F-1"><g transform="translate(0.5,0.5)"><rect x="0" y="0" width="50" height="50" fill="none" stroke="none" pointer-events="all"/><path d="M 25 0 C 11.2 0 0 11.2 0 25 C 0 38.8 11.2 50 25 50 C 38.8 50 50 38.8 50 25 C 50 11.2 38.8 0 25 0 Z M 25 1.01 C 38.26 1.01 48.99 11.74 48.99 25 C 48.99 38.26 38.26 48.99 25 48.99 C 11.74 48.99 1.01 38.26 1.01 25 C 1.01 11.74 11.74 1.01 25 1.01 Z M 16.34 15.84 C 16.2 15.84 16.08 15.89 15.98 15.98 C 15.79 16.18 15.79 16.49 15.98 16.69 L 24.29 25 L 15.98 33.31 C 15.79 33.51 15.79 33.82 15.98 34.02 C 16.18 34.21 16.49 34.21 16.69 34.02 L 25 25.71 L 33.31 34.02 C 33.51 34.21 33.82 34.21 34.02 34.02 C 34.21 33.82 34.21 33.51 34.02 33.31 L 25.71 25 L 34.02 16.69 C 34.21 16.49 34.21 16.18 34.02 15.98 C 33.92 15.89 33.8 15.84 33.66 15.84 C 33.53 15.84 33.41 15.89 33.31 15.98 L 25 24.29 L 16.69 15.98 C 16.59 15.89 16.47 15.84 16.34 15.84 Z" fill="#000000" stroke="none" pointer-events="all" style="fill: light-dark(rgb(0, 0, 0), rgb(237, 237, 237));"/></g></g></g></g></g></svg>